<?xml version="1.0" ?><svg xmlns="http://www.w3.org/2000/svg" xmlns:xlink="http://www.w3.org/1999/xlink" version="1.1" viewBox="0 0 512 512" style="enable-background:new 0 0 512 512;" xml:space="preserve"><g id="_x33_5_x2C__gong_x2C__music_and_multimedia_x2C__music_instruments_x2C__percussion_instrument_x2C__orchestra_x2C__oriental"><g><path style="fill:#DC5461;" d="M81,91.004c-5.522,0-10,4.478-10,10v220H51v-220c0-5.522-4.478-10-10-10s-10,4.478-10,10v230    c0,5.522,4.478,10,10,10h40c5.522,0,10-4.478,10-10v-230C91,95.482,86.522,91.004,81,91.004z"/><path style="fill:#DC5461;" d="M471,203.504c-5.522,0-10,4.478-10,10v107.5h-20v-220c0-5.522-4.478-10-10-10s-10,4.478-10,10v230    c0,5.522,4.478,10,10,10h40c5.522,0,10-4.478,10-10v-117.5C481,207.982,476.522,203.504,471,203.504z"/><path style="fill:#DC5461;" d="M471,91.004c-5.522,0-10,4.478-10,10v72.5c0,5.522,4.478,10,10,10s10-4.478,10-10v-72.5    C481,95.482,476.522,91.004,471,91.004z"/><g><path style="fill:#283954;" d="M501,321.004H401c-5.522,0-10,4.478-10,10v170c0,5.522,4.478,10,10,10h100c5.522,0,10-4.478,10-10     v-170C511,325.482,506.522,321.004,501,321.004z M491,491.004h-80v-150h80V491.004z"/><path style="fill:#283954;" d="M111,321.004H11c-5.522,0-10,4.478-10,10v170c0,5.522,4.478,10,10,10h100c5.522,0,10-4.478,10-10     v-53.75c0-5.522-4.478-10-10-10s-10,4.478-10,10v43.75H21v-150h80v66.25c0,5.522,4.478,10,10,10s10-4.478,10-10v-76.25     C121,325.482,116.522,321.004,111,321.004z"/><path style="fill:#283954;" d="M501,51.004h-20v-40c0-5.522-4.478-10-10-10h-40c-5.522,0-10,4.478-10,10v40h-62.529     c-9.172,0-17.972-4.266-23.538-11.41c-40.052-51.418-117.739-51.51-157.857-0.004c-5.566,7.147-14.366,11.414-23.54,11.414H91     v-40c0-5.522-4.478-10-10-10H41c-5.522,0-10,4.478-10,10v40H11c-5.522,0-10,4.478-10,10v40c0,5.522,4.478,10,10,10h160v87.621     c-18.627,20.444-30,47.608-30,77.379c0,63.411,51.589,115,115,115c9.282,0,18.484-1.106,27.351-3.29     c5.363-1.32,8.64-6.738,7.319-12.101c-1.32-5.361-6.735-8.634-12.101-7.319c-7.304,1.798-14.897,2.71-22.569,2.71     c-52.383,0-95-42.617-95-95s42.617-95,95-95s95,42.617,95,95c0,30.472-14.786,59.312-39.554,77.145     c-4.481,3.228-5.499,9.477-2.271,13.959c3.227,4.481,9.475,5.498,13.959,2.271C353.105,347.797,371,312.891,371,276.004     c0-29.771-11.373-56.935-30-77.379v-87.621h160c5.522,0,10-4.478,10-10v-40C511,55.482,506.522,51.004,501,51.004z M441,21.004     h20v30h-20V21.004z M51,21.004h20v30H51V21.004z M321,181.19c-38.368-26.386-90.102-27.437-130,0v-70.185h130V181.19z      M491,91.004H21v-20h132.535c15.293,0,29.992-7.149,39.319-19.125c32.045-41.144,94.194-41.209,126.301,0.006     c9.327,11.972,24.024,19.119,39.315,19.119H491V91.004z"/><path style="fill:#283954;" d="M256,211.004c-35.841,0-65,29.159-65,65c0,37.454,31.773,67.007,68.27,64.913     c5.514-0.314,9.729-5.039,9.414-10.553s-5.05-9.744-10.553-9.414C233.23,322.359,211,302.133,211,276.004     c0-24.813,20.187-45,45-45s45,20.187,45,45c0,11.876-4.588,23.079-12.918,31.546c-3.874,3.938-3.822,10.269,0.114,14.142     c3.938,3.876,10.27,3.822,14.142-0.114C314.372,309.345,321,293.161,321,276.004C321,240.164,291.841,211.004,256,211.004z"/></g><path style="fill:#DC5461;" d="M289.657,279.82c-6.918-14.627-24.643-21.511-39.949-14.303    c-14.954,7.079-21.37,24.998-14.302,39.941l38.041,80.452l-0.001-0.001l38.898,82.277c7.086,14.998,24.979,21.394,39.943,14.3    c14.995-7.085,21.398-24.953,14.3-39.946L289.657,279.82z M343.733,464.409c-5.004,2.37-10.951,0.218-13.306-4.768l-38.899-82.28    c-0.001,0-0.001,0-0.001-0.001l-38.04-80.45c-2.355-4.98-0.212-10.953,4.761-13.308c5.119-2.411,11.023-0.108,13.328,4.767    l76.933,162.726C350.856,456.05,348.787,462.02,343.733,464.409z"/></g></g><g id="Layer_1"/></svg>